<?xml version="1.0" encoding="UTF-8"?>
<svg width="272px" height="143px" viewBox="0 0 272 143" version="1.1" xmlns="http://www.w3.org/2000/svg" xmlns:xlink="http://www.w3.org/1999/xlink">
    <!-- Generator: Sketch 48.2 (47327) - http://www.bohemiancoding.com/sketch -->
    <title>Logo</title>
    <desc>Created with Sketch.</desc>
    <defs></defs>
    <g id="Desktop" stroke="none" stroke-width="1" fill="none" fill-rule="evenodd" transform="translate(-375.000000, -103.000000)">
        <g id="Logo" transform="translate(375.000000, 103.000000)" fill="#5A6378">
            <path d="M100,16.0875 L93.7611408,16.0875 L88.4135472,5.54125 L11.2299465,0 L5.88235294,16.0875 L0,16.0875 L0,36.64375 L5.34759358,36.64375 L16.0427807,143 L83.7789661,143 L94.4741533,36.64375 L100,36.64375 L100,16.0875 Z M14.2602496,4.82625 L85.5614973,10.01 L88.5918004,16.26625 L10.516934,16.26625 L14.2602496,4.82625 Z M87.8787879,55.94875 L21.3903743,55.94875 L21.3903743,57.37875 L87.7005348,57.37875 L81.6399287,118.15375 L27.0944742,118.15375 L27.0944742,119.58375 L81.4616756,119.58375 L79.5008913,138.53125 L20.1426025,138.53125 L9.98217469,36.64375 L89.8395722,36.64375 L87.8787879,55.94875 Z M95.3654189,32.175 L94.8306595,32.175 L4.99108734,32.175 L4.45632799,32.175 L4.45632799,20.735 L95.543672,20.735 L95.543672,32.175 L95.3654189,32.175 Z" id="Shape" fill-rule="nonzero"></path>
            <text id="Elm-Latte-Charts" font-family="SourceSansPro-SemiBold, Source Sans Pro" font-size="36" font-weight="500">
                <tspan x="128" y="62">Elm Latte</tspan>
                <tspan x="128" y="107">Charts</tspan>
            </text>
        </g>
    </g>
</svg>